<svg xmlns="http://www.w3.org/2000/svg" viewBox="0 0 204.444 430.87"><title>Asset 1background</title><rect x="85.225" y="36.407" width="33.994" height="15.738" fill="#196aab"/><rect x="8.424" y="92.411" width="187.596" height="27.122" fill="#155e98"/><rect x="13.46" y="124.872" width="177.524" height="4.774" fill="#11558b"/><polygon points="187.662 400.968 102.222 400.968 16.781 400.968 6.102 407.905 102.222 407.905 198.341 407.905 187.662 400.968" fill="#0087ca"/><rect x="6.102" y="407.905" width="192.239" height="11.732" fill="#196aab"/><rect y="419.138" width="204.444" height="11.732" fill="#1b75bc"/><rect x="16.781" y="129.646" width="170.881" height="271.322" fill="#155e98"/><rect x="100.903" y="129.646" width="2.639" height="271.322" fill="#0b4a7c"/><rect x="27.448" y="224.544" width="63.825" height="78.861" fill="#0b4a7c"/><rect x="27.448" y="310.63" width="63.825" height="78.861" fill="#0b4a7c"/><rect x="27.448" y="138.459" width="63.825" height="78.861" fill="#0b4a7c"/><rect x="32.499" y="143.181" width="15.673" height="32.082" fill="#fff"/><rect x="51.524" y="143.181" width="15.673" height="32.082" fill="#fff"/><rect x="70.549" y="143.181" width="15.673" height="32.082" fill="#fff"/><rect x="32.499" y="180.031" width="15.673" height="32.082" fill="#fff"/><rect x="51.524" y="180.031" width="15.673" height="32.082" fill="#fff"/><rect x="70.549" y="180.031" width="15.673" height="32.082" fill="#fff"/><rect x="112.779" y="224.544" width="63.825" height="78.861" fill="#0b4a7c"/><rect x="112.779" y="310.63" width="63.825" height="78.861" fill="#0b4a7c"/><rect x="112.779" y="138.459" width="63.825" height="78.861" fill="#0b4a7c"/><rect x="117.83" y="143.181" width="15.673" height="32.082" fill="#fff"/><rect x="136.855" y="143.181" width="15.673" height="32.082" fill="#fff"/><rect x="155.881" y="143.181" width="15.673" height="32.082" fill="#fff"/><rect x="117.83" y="180.031" width="15.673" height="32.082" fill="#fff"/><rect x="136.855" y="180.031" width="15.673" height="32.082" fill="#fff"/><rect x="155.881" y="180.031" width="15.673" height="32.082" fill="#fff"/><text transform="translate(19.86 111.034)" font-size="14.26" fill="#fff" font-family="MyriadPro-Regular, Myriad Pro">POLICE</text><text transform="translate(93.525 104.699)" font-size="6.691" fill="#fff" font-family="MyriadPro-Regular, Myriad Pro">PUBLIC</text><text transform="translate(96.443 111.952)" font-size="6.691" fill="#fff" font-family="MyriadPro-Regular, Myriad Pro" letter-spacing="0.004em">C<tspan x="3.907" y="0" letter-spacing="0em">ALL</tspan></text><text transform="translate(150.717 116.373)" font-size="14.26" fill="#fff" font-family="MyriadPro-Regular, Myriad Pro">B<tspan x="7.729" y="0" letter-spacing="-0.027em">O</tspan><tspan x="17.169" y="0">X</tspan></text><polygon points="102.272 9.669 102.087 9.669 92.078 9.669 92.078 36.407 102.087 36.407 102.272 36.407 112.281 36.407 112.281 9.669 102.272 9.669" fill="#196aab"/><rect x="93.651" y="10.956" width="7.864" height="7.149" fill="#fff"/><rect x="102.802" y="10.956" width="7.864" height="7.149" fill="#fff"/><rect x="93.765" y="19.321" width="7.864" height="7.149" fill="#fff"/><rect x="102.915" y="19.321" width="7.864" height="7.149" fill="#fff"/><rect x="93.672" y="27.614" width="7.864" height="7.149" fill="#fff"/><rect x="102.823" y="27.614" width="7.864" height="7.149" fill="#fff"/><path d="M102.222,0C91.71,0,90.368,9.669,90.368,9.669h23.708S112.733,0,102.222,0Z" fill="#0087ca"/><polygon points="181.542 79.987 102.222 79.987 22.901 79.987 8.424 92.411 102.222 92.411 196.02 92.411 181.542 79.987" fill="#1b75bc"/><rect x="22.901" y="70.706" width="158.405" height="9.281" fill="#155e98"/><rect x="32.427" y="61.426" width="139.589" height="9.28" fill="#1866a4"/><rect x="45.903" y="52.145" width="112.638" height="9.28" fill="#1a6fb2"/><polygon points="102.222 119.533 102.222 119.533 8.424 119.533 13.46 124.872 102.222 124.872 102.222 124.872 190.984 124.872 196.02 119.533 102.222 119.533" fill="#0d4e80"/></svg>