<svg xmlns="http://www.w3.org/2000/svg" viewBox="0 0 300 300"><title>Asset 2background</title><rect width="300" height="300" rx="15.5" fill="#2058bb"/><rect x="9" y="9" width="282" height="282" rx="6.5" fill="#fff"/><path d="M282,18V282H18V18H282m2.5-18H15.5A15.5,15.5,0,0,0,0,15.5v269A15.5,15.5,0,0,0,15.5,300h269A15.5,15.5,0,0,0,300,284.5V15.5A15.5,15.5,0,0,0,284.5,0Z" fill="#2058bb"/><ellipse cx="236.555" cy="53.166" rx="15.106" ry="15.733" fill="#2058bb"/><path d="M236.555,26.031c14.322,0,25.973,12.173,25.973,27.135S250.877,80.3,236.555,80.3s-25.973-12.172-25.973-27.134,11.651-27.135,25.973-27.135m0-2c-15.449,0-27.973,13.044-27.973,29.135S221.106,82.3,236.555,82.3s27.973-13.044,27.973-29.134S252,24.031,236.555,24.031Z" fill="#2058bb"/><ellipse cx="150.156" cy="148.291" rx="121.204" ry="126.277" fill="#fff"/><path d="M150.156,23.014c32.093,0,62.269,13.021,84.969,36.664a127.162,127.162,0,0,1,35.236,88.614,127.161,127.161,0,0,1-35.236,88.613c-22.7,23.643-52.876,36.663-84.969,36.663s-62.268-13.02-84.968-36.663a127.161,127.161,0,0,1-35.236-88.613A127.162,127.162,0,0,1,65.188,59.678c22.7-23.643,52.876-36.664,84.968-36.664m0-2c-67.491,0-122.2,56.984-122.2,127.278s54.713,127.276,122.2,127.276,122.2-56.983,122.2-127.276S217.648,21.014,150.156,21.014Z" fill="#2058bb"/><ellipse cx="150.156" cy="148.291" rx="110.572" ry="115.203" fill="#fff"/><path d="M150.156,34.088c29.253,0,56.758,11.869,77.451,33.42a117.643,117.643,0,0,1,0,161.566c-20.693,21.552-48.2,33.421-77.451,33.421S93.4,250.626,72.706,229.074a117.643,117.643,0,0,1,0-161.566c20.692-21.551,48.2-33.42,77.45-33.42m0-2c-61.619,0-111.571,52.026-111.571,116.2S88.537,264.5,150.156,264.5s111.572-52.026,111.572-116.2-49.952-116.2-111.572-116.2Z" fill="#2058bb"/><path d="M229.774,103.277h-8.918l-3.133-10.721H213.7V79.5s-56.394,3.263-56.394,0V51.068l-7.145-5.128-7.144,5.128V79.5c0,3.263-56.394,0-56.394,0V92.556H82.589l-3.132,10.721H70.539l-3.614,5.594v13.052l4.475,3.263s2.753,104.419,2.753,108.175c20.108,20.477,46.067,29.649,76,31.134,29.937-1.485,55.9-10.657,76-31.134,0-3.756,2.753-108.175,2.753-108.175l4.475-3.263V108.871Z" fill="#2058bb"/><rect x="90.87" y="128.449" width="17.12" height="25.638" rx="1.295" fill="#fff" stroke="#2058bb" stroke-miterlimit="10"/><rect x="109.668" y="128.449" width="17.12" height="25.638" rx="1.295" fill="#fff" stroke="#2058bb" stroke-miterlimit="10"/><rect x="128.13" y="128.449" width="17.12" height="25.638" rx="1.295" fill="#fff" stroke="#2058bb" stroke-miterlimit="10"/><rect x="90.87" y="157.584" width="17.12" height="25.638" rx="1.295" fill="#fff" stroke="#2058bb" stroke-miterlimit="10"/><rect x="109.668" y="157.584" width="17.12" height="25.638" rx="1.295" fill="#fff" stroke="#2058bb" stroke-miterlimit="10"/><rect x="128.13" y="157.584" width="17.12" height="25.638" rx="1.295" fill="#fff" stroke="#2058bb" stroke-miterlimit="10"/><rect x="157.222" y="128.449" width="17.12" height="25.638" rx="1.295" fill="#fff" stroke="#2058bb" stroke-miterlimit="10"/><rect x="176.021" y="128.449" width="17.12" height="25.638" rx="1.295" fill="#fff" stroke="#2058bb" stroke-miterlimit="10"/><rect x="194.483" y="128.449" width="17.12" height="25.638" rx="1.295" fill="#fff" stroke="#2058bb" stroke-miterlimit="10"/><rect x="157.222" y="157.584" width="17.12" height="25.638" rx="1.295" fill="#fff" stroke="#2058bb" stroke-miterlimit="10"/><rect x="176.021" y="157.584" width="17.12" height="25.638" rx="1.295" fill="#fff" stroke="#2058bb" stroke-miterlimit="10"/><rect x="194.483" y="157.584" width="17.12" height="25.638" rx="1.295" fill="#fff" stroke="#2058bb" stroke-miterlimit="10"/><rect x="102.395" y="194.177" width="37.708" height="48.829" rx="1.832" fill="#fff" stroke="#2058bb" stroke-miterlimit="10"/><ellipse cx="185.42" cy="217.546" rx="9.903" ry="10.314" fill="#fff" stroke="#2058bb" stroke-miterlimit="10"/><ellipse cx="261.728" cy="248.251" rx="13.482" ry="14.041" fill="#2058bb" stroke="#fff" stroke-miterlimit="10"/><ellipse cx="48.012" cy="260.606" rx="16.899" ry="17.6" fill="#fff" stroke="#2058bb" stroke-miterlimit="10"/><ellipse cx="230.174" cy="266.197" rx="8.114" ry="8.45" fill="#2058bb" stroke="#fff" stroke-miterlimit="10"/><ellipse cx="81.356" cy="272.945" rx="6.479" ry="6.748" fill="#2058bb" stroke="#fff" stroke-miterlimit="10"/><ellipse cx="36.066" cy="231.224" rx="6.36" ry="6.624" fill="#2058bb" stroke="#fff" stroke-miterlimit="10"/><ellipse cx="45.105" cy="61.264" rx="14.713" ry="15.323" fill="#2058bb"/><ellipse cx="63.456" cy="32.088" rx="7.721" ry="8.041" fill="#2058bb"/><ellipse cx="39.063" cy="29.392" rx="4.252" ry="4.428" fill="#2058bb"/><g opacity="0.54"><path d="M297.38,39.965l-.417-10.96-.192-5.48-.1-2.74a17.088,17.088,0,0,0-.318-2.561,14.543,14.543,0,0,0-5.132-8.532,14.36,14.36,0,0,0-9.21-3.212c-3.6.082-7.291.224-10.931.367q-5.479.19-10.96.02c-3.653-.139-7.306-.3-10.959-.594s-7.307-.633-10.96-1.206v-.4c3.653-.573,7.306-.928,10.96-1.206s7.306-.455,10.959-.593c7.319-.287,14.585.211,21.947.414a17.269,17.269,0,0,1,10.852,4.441,16.856,16.856,0,0,1,5.407,10.172,19.107,19.107,0,0,1,.153,2.891l-.1,2.74-.192,5.48-.416,10.96Z" fill="#fff"/></g><g opacity="0.54"><path d="M5.835,39.965l-.416-10.96-.192-5.48-.1-2.74a18.978,18.978,0,0,1,.153-2.891A16.856,16.856,0,0,1,10.691,7.722,17.269,17.269,0,0,1,21.543,3.281c7.362-.2,14.628-.7,21.947-.414,3.653.138,7.306.3,10.959.593s7.307.633,10.96,1.206v.4C61.756,5.64,58.1,6,54.449,6.273s-7.306.455-10.959.594q-5.479.173-10.96-.02C28.89,6.7,25.2,6.562,21.6,6.48a14.36,14.36,0,0,0-9.21,3.212,14.543,14.543,0,0,0-5.132,8.532,17.088,17.088,0,0,0-.318,2.561l-.1,2.74-.191,5.48-.417,10.96Z" fill="#fff"/></g><g opacity="0.54"><path d="M297.78,260.733l.416,10.96.192,5.48.1,2.74a19.107,19.107,0,0,1-.153,2.891,16.856,16.856,0,0,1-5.407,10.172,17.264,17.264,0,0,1-10.852,4.441c-7.362.2-14.628.7-21.947.415-3.653-.139-7.306-.3-10.959-.594s-7.307-.633-10.96-1.206v-.4c3.653-.574,7.306-.929,10.96-1.207s7.306-.455,10.959-.593q5.48-.174,10.96.02c3.64.142,7.335.284,10.931.366a14.364,14.364,0,0,0,9.21-3.211,14.548,14.548,0,0,0,5.132-8.533,17.088,17.088,0,0,0,.318-2.561l.1-2.74.192-5.48.417-10.96Z" fill="#fff"/></g><g opacity="0.54"><path d="M6.235,260.733l.417,10.96.191,5.48.1,2.74a17.088,17.088,0,0,0,.318,2.561,14.548,14.548,0,0,0,5.132,8.533,14.364,14.364,0,0,0,9.21,3.211c3.6-.082,7.291-.224,10.931-.366s7.307-.136,10.96-.02c3.653.138,7.306.3,10.959.593s7.307.633,10.96,1.207v.4c-3.653.573-7.306.928-10.96,1.206s-7.306.455-10.959.594c-7.319.287-14.585-.212-21.947-.415a17.264,17.264,0,0,1-10.852-4.441A16.856,16.856,0,0,1,5.284,282.8a18.978,18.978,0,0,1-.153-2.891l.1-2.74.192-5.48.416-10.96Z" fill="#fff"/></g></svg>