<svg xmlns="http://www.w3.org/2000/svg" viewBox="0 0 300 300"><title>Asset 5background</title><rect width="300" height="300" rx="15.5" fill="#2058bb"/><rect x="9" y="9" width="282" height="282" rx="6.5" fill="#fff"/><path d="M282,18V282H18V18H282m2.5-18H15.5A15.5,15.5,0,0,0,0,15.5v269A15.5,15.5,0,0,0,15.5,300h269A15.5,15.5,0,0,0,300,284.5V15.5A15.5,15.5,0,0,0,284.5,0Z" fill="#2058bb"/><ellipse cx="236.555" cy="53.166" rx="15.106" ry="15.733" fill="#2058bb"/><path d="M236.555,26.031c14.322,0,25.973,12.173,25.973,27.135S250.877,80.3,236.555,80.3s-25.973-12.172-25.973-27.134,11.651-27.135,25.973-27.135m0-2c-15.449,0-27.973,13.044-27.973,29.135S221.106,82.3,236.555,82.3s27.973-13.044,27.973-29.134S252,24.031,236.555,24.031Z" fill="#2058bb"/><ellipse cx="150.156" cy="148.292" rx="121.204" ry="126.277" fill="#fff"/><path d="M150.156,23.014c32.093,0,62.269,13.021,84.969,36.664a127.162,127.162,0,0,1,35.236,88.614,127.161,127.161,0,0,1-35.236,88.613c-22.7,23.643-52.876,36.663-84.969,36.663s-62.268-13.02-84.968-36.663a127.161,127.161,0,0,1-35.236-88.613A127.162,127.162,0,0,1,65.188,59.678c22.7-23.643,52.876-36.664,84.968-36.664m0-2c-67.491,0-122.2,56.984-122.2,127.278s54.713,127.276,122.2,127.276,122.2-56.983,122.2-127.276S217.648,21.014,150.156,21.014Z" fill="#2058bb"/><ellipse cx="150.156" cy="148.292" rx="110.572" ry="115.203" fill="#fff"/><path d="M150.156,34.088c29.253,0,56.758,11.869,77.451,33.42a117.643,117.643,0,0,1,0,161.566c-20.693,21.552-48.2,33.421-77.451,33.421S93.4,250.626,72.706,229.074a117.643,117.643,0,0,1,0-161.566c20.692-21.551,48.2-33.42,77.45-33.42m0-2c-61.619,0-111.571,52.026-111.571,116.2S88.537,264.5,150.156,264.5s111.572-52.026,111.572-116.2-49.952-116.2-111.572-116.2Z" fill="#2058bb"/><ellipse cx="45.105" cy="61.264" rx="14.713" ry="15.323" fill="#2058bb"/><ellipse cx="63.456" cy="32.088" rx="7.721" ry="8.041" fill="#2058bb"/><ellipse cx="39.063" cy="29.392" rx="4.252" ry="4.428" fill="#2058bb"/><ellipse cx="261.728" cy="248.251" rx="13.482" ry="14.041" fill="#2058bb" stroke="#fff" stroke-linecap="round" stroke-miterlimit="10"/><ellipse cx="48.012" cy="260.606" rx="16.899" ry="17.6" fill="#fff" stroke="#2058bb" stroke-linecap="round" stroke-miterlimit="10"/><ellipse cx="230.174" cy="266.197" rx="8.114" ry="8.45" fill="#2058bb" stroke="#fff" stroke-linecap="round" stroke-miterlimit="10"/><ellipse cx="81.356" cy="272.945" rx="6.479" ry="6.748" fill="#2058bb" stroke="#fff" stroke-linecap="round" stroke-miterlimit="10"/><ellipse cx="36.066" cy="231.224" rx="6.36" ry="6.624" fill="#2058bb" stroke="#fff" stroke-linecap="round" stroke-miterlimit="10"/><rect x="22.851" y="88.229" width="83.368" height="191.463" fill="#fdfffe"/><path d="M66.195,278.147c-16.144,0-27.417-7.317-33.507-21.749-4.864-11.262-5.489-25.35-5.489-36.361v-3.5H60.511v3.5c0,11.415.677,19.109,2.072,23.521,1.2,4.007,2.372,4.007,3.612,4.007.876,0,2.929,0,4.03-4.954.909-4.092.909-9.691.909-14.63,0-5.627,0-10.943.25-15.727-.013-8.5-1.692-13.085-5.786-15.8-2.678-1.535-6.718-2.5-11.4-2.708H48.545V164.636l3.268-.218c11.131-.741,14.3-2.966,15.632-6.076l.087-.189c.92-1.837,1.367-4.491,1.367-8.115V135.394c0-4.949,0-10.558-.915-14.919-1.087-5.163-3.146-5.163-4.025-5.163-1.2,0-2.058,0-2.779,3.425l-.03.128c-1.129,4.513-1.632,11.906-1.632,23.975v3.5H26.205v-3.5c0-8.433,0-24.129,4.967-36.547C37.109,91.774,47.83,84.729,63.959,84.729c19.45,0,28.781,10.791,33.183,19.841a55.593,55.593,0,0,1,5.069,22.878c0,23.641-3.519,38.345-11.668,48.152,12.177,12.044,13.9,32.09,13.9,50.4,0,.783,0,2.609-.257,5.455A85.25,85.25,0,0,1,99.54,253.2c-3.662,9.77-9.621,17.1-17.264,21.292C77.91,276.944,72.639,278.147,66.195,278.147Z" fill="#2260bf"/><path d="M63.959,88.229c16.88,0,25.569,8.689,30.036,17.873s4.716,19.115,4.716,21.347c0,27.056-4.716,39.966-12.907,48.157l-.249.249C98.466,186.032,100.947,204.9,100.947,226c0,.744,0,2.481-.249,5.211a81.11,81.11,0,0,1-4.468,20.852C93.251,260,88.285,267.2,80.593,271.419c-3.972,2.236-8.689,3.229-14.4,3.229-16.88,0-25.569-8.44-30.282-19.61-4.716-10.921-5.215-24.824-5.215-35H57.011c0,12.163.744,19.859,2.235,24.575,1.488,4.966,3.723,6.454,6.949,6.454,4.221,0,6.453-3.225,7.446-7.7s.993-10.177.993-15.388c0-5.71,0-10.921.249-15.638,0-8.938-1.737-15.142-7.446-18.865-2.98-1.737-7.447-2.98-13.156-3.229H52.045V167.91c11.17-.744,16.385-2.979,18.617-8.19,1.242-2.481,1.737-5.71,1.737-9.682V135.393c0-5.214,0-10.92-.99-15.637s-3.228-7.945-7.45-7.945c-3.225,0-5.211,1.492-6.2,6.2-1.242,4.965-1.737,12.661-1.737,24.824H29.705c0-10.177.249-24.077,4.717-35.247,4.467-10.924,12.661-19.364,29.537-19.364m0-7c-17.464,0-29.582,7.979-36.016,23.715l-.011.025-.01.025c-5.217,13.044-5.217,29.178-5.217,37.846v7H63.018v-7c0-11.125.421-18.107,1.359-22.4.062.228.123.481.182.764.84,4,.84,9.416.84,14.194v14.645c0,3.024-.335,5.227-1,6.548l-.094.186-.082.192c-.446,1.042-1.375,3.211-12.647,3.962l-6.535.435V197.25h9.077c5.521.262,8.495,1.557,9.641,2.192,2.462,1.673,4.1,4.548,4.12,12.725-.249,4.85-.249,10.178-.249,15.815,0,4.758,0,10.152-.826,13.869a9.65,9.65,0,0,1-.53,1.712c-.1-.255-.21-.572-.326-.96l-.016-.051-.016-.05c-1.285-4.064-1.909-11.412-1.909-22.465v-7H23.7v7c0,11.338.658,25.873,5.776,37.747,6.691,15.836,19.045,23.864,36.721,23.864,7.046,0,12.869-1.345,17.8-4.11,8.371-4.6,14.869-12.563,18.791-23.021l.034-.091.031-.091a89.035,89.035,0,0,0,4.832-22.64c.265-2.963.265-4.875.265-5.7,0-17.974-1.654-37.6-12.824-50.614,7.372-10.39,10.588-25.257,10.588-47.933,0-3.114-.391-14.075-5.422-24.411C95.45,93.09,85.218,81.229,63.959,81.229Z" fill="#fff"/><path d="M125.493,231.583c54.177,7.9,102.564-12.574,135.878-63.915" fill="none" stroke="#2260bf" stroke-linecap="round" stroke-miterlimit="10" stroke-width="7"/><path d="M177.707,64.205c-7.791-6.845-82.994,31.717-76.76,36.961C130.129,99.26,155.585,86.618,177.707,64.205Z" fill="none" stroke="#2260bf" stroke-linecap="round" stroke-miterlimit="10" stroke-width="7"/><path d="M112.419,102.645l29.937,129.794c55.19-1.19,95.77-21.586,119.015-64.771L177.707,64.205C163.787,82.4,141.425,94.8,112.419,102.645Z" fill="#2260bf"/><line x1="100.947" y1="101.166" x2="129.659" y2="231.088" fill="none" stroke="#2260bf" stroke-linecap="round" stroke-miterlimit="10" stroke-width="7"/><polyline points="140.159 82.841 142.069 80.95 143.779 78.442 146.443 78.887 148.609 77.785 151.335 78.434 154.261 79.69 156.771 79.652 157.623 74.476 161.46 78.541 162.557 74.112 164.804 75.159 167.305 75.581 167.637 78.583 168.029 81.54 171.793 81.642 170.898 85.685 173.78 86.533 174.987 88.803 178.954 88.733 179.341 91.696 182.16 92.601 182.204 95.855 184.477 97.222 186.957 98.415 189.519 99.539 188.163 103.974 193.03 103.146 190.308 108.744 195.193 107.905 198.405 108.483 199.54 110.824 198.302 114.937 196.854 117.13 201.508 119.444 202.074 121.859 202.407 124.289 198.074 128.175 201.363 129.921 204.33 130.502 204.711 133.967 207.296 133.186 209.574 132.976 211.883 131.904 213.58 129.67 211.982 127.085 210.105 125.571 209.846 123.68 211.116 119.044 209.542 116.832 205.601 117.785 201.994 118.982 202.904 112.639 200.216 112.29" fill="none" stroke="#fff" stroke-linecap="round" stroke-miterlimit="10" stroke-width="7"/><path d="M209.858,122.872c4.176,2.807,8.708,5.17,12.332,8.66,4.037,3.889,6.709,8.947,9.312,13.911" fill="none" stroke="#fff" stroke-miterlimit="10" stroke-width="7"/><path d="M206.884,123.584A36.839,36.839,0,0,1,219.37,147.12" fill="none" stroke="#fff" stroke-miterlimit="10" stroke-width="7"/><path d="M202.475,124.445c2.4,2.823,4.862,5.761,5.9,9.319a22.842,22.842,0,0,1,.677,3.74,83.686,83.686,0,0,1,.433,14.279" fill="none" stroke="#fff" stroke-miterlimit="10" stroke-width="7"/><path d="M201.5,124.629a96.283,96.283,0,0,1,.168,27.786" fill="none" stroke="#fff" stroke-miterlimit="10" stroke-width="7"/><path d="M199.168,126.014a48.881,48.881,0,0,1-4.724,21.086" fill="none" stroke="#fff" stroke-miterlimit="10" stroke-width="7"/><path d="M210.264,119.464c3.814.973,7.774,1.214,11.647,1.915s7.792,1.932,10.74,4.54" fill="none" stroke="#fff" stroke-miterlimit="10" stroke-width="7"/><path d="M119.882,104.3l8.057,30.828" fill="none" stroke="#fff" stroke-linecap="round" stroke-miterlimit="10" stroke-width="7"/><g opacity="0.54"><path d="M295,37.938l-.416-10.96-.192-5.48-.1-2.74a17.218,17.218,0,0,0-.317-2.561,14.551,14.551,0,0,0-5.132-8.532,14.356,14.356,0,0,0-9.211-3.211c-3.6.082-7.29.224-10.931.366q-5.48.191-10.959.02c-3.653-.139-7.307-.3-10.96-.593s-7.306-.634-10.959-1.207v-.4c3.653-.573,7.306-.929,10.959-1.207S254.1.978,257.748.84c7.318-.287,14.585.212,21.947.414A17.267,17.267,0,0,1,290.546,5.7a16.853,16.853,0,0,1,5.407,10.172,18.985,18.985,0,0,1,.153,2.891l-.1,2.74-.191,5.48-.417,10.96Z" fill="#fff"/></g><g opacity="0.54"><path d="M3.458,37.938l-.417-10.96L2.85,21.5l-.1-2.74a18.985,18.985,0,0,1,.153-2.891A16.853,16.853,0,0,1,8.314,5.7,17.267,17.267,0,0,1,19.165,1.254c7.362-.2,14.629-.7,21.947-.414,3.654.138,7.307.3,10.96.593s7.306.634,10.959,1.207v.4c-3.653.573-7.306.928-10.959,1.207s-7.306.454-10.96.593q-5.479.174-10.959-.02c-3.641-.142-7.335-.284-10.931-.366a14.356,14.356,0,0,0-9.211,3.211A14.551,14.551,0,0,0,4.879,16.2a17.218,17.218,0,0,0-.317,2.561l-.1,2.74-.192,5.48-.416,10.96Z" fill="#fff"/></g><g opacity="0.54"><path d="M295.4,258.707l.417,10.959.191,5.48.1,2.74a18.978,18.978,0,0,1-.153,2.891,16.85,16.85,0,0,1-5.407,10.172A17.261,17.261,0,0,1,279.7,295.39c-7.362.2-14.629.7-21.947.415-3.653-.139-7.307-.3-10.96-.594s-7.306-.633-10.959-1.206v-.4c3.653-.573,7.306-.929,10.959-1.207s7.307-.455,10.96-.593q5.48-.174,10.959.02c3.641.142,7.335.284,10.931.366a14.356,14.356,0,0,0,9.211-3.211,14.553,14.553,0,0,0,5.132-8.533,17.218,17.218,0,0,0,.317-2.561l.1-2.74.192-5.48L295,258.707Z" fill="#fff"/></g><g opacity="0.54"><path d="M3.858,258.707l.416,10.959.192,5.48.1,2.74a17.218,17.218,0,0,0,.317,2.561,14.553,14.553,0,0,0,5.132,8.533,14.356,14.356,0,0,0,9.211,3.211c3.6-.082,7.29-.224,10.931-.366s7.306-.136,10.959-.02c3.654.138,7.307.3,10.96.593s7.306.634,10.959,1.207v.4c-3.653.573-7.306.928-10.959,1.206s-7.306.455-10.96.594c-7.318.287-14.585-.212-21.947-.415a17.261,17.261,0,0,1-10.851-4.441,16.85,16.85,0,0,1-5.407-10.172,18.978,18.978,0,0,1-.153-2.891l.1-2.74.191-5.48.417-10.959Z" fill="#fff"/></g></svg>