<svg xmlns="http://www.w3.org/2000/svg" viewBox="0 0 300 300"><title>Asset 4background</title><rect x="9" y="9" width="282" height="282" rx="6.5" fill="#fff"/><path d="M282,18V282H18V18H282m2.5-18H15.5A15.5,15.5,0,0,0,0,15.5v269A15.5,15.5,0,0,0,15.5,300h269A15.5,15.5,0,0,0,300,284.5V15.5A15.5,15.5,0,0,0,284.5,0Z" fill="#2058bb"/><path d="M237.617,25.314c14.641,0,26.552,12.287,26.552,27.391S252.258,80.1,237.617,80.1s-26.553-12.287-26.553-27.391,11.912-27.391,26.553-27.391m0-2c-15.769,0-28.553,13.159-28.553,29.391S221.848,82.1,237.617,82.1s28.552-13.159,28.552-29.391-12.784-29.391-28.552-29.391Z" fill="#2058bb"/><ellipse cx="237.617" cy="52.705" rx="15.418" ry="15.871" fill="#2058bb"/><ellipse cx="149.43" cy="148.67" rx="123.734" ry="127.399" fill="#fff"/><path d="M149.43,22.27a120.17,120.17,0,0,1,86.765,37,129.081,129.081,0,0,1,0,178.8,120.23,120.23,0,0,1-173.53,0,129.084,129.084,0,0,1,0-178.8,120.17,120.17,0,0,1,86.765-37m0-2C80.542,20.27,24.7,77.756,24.7,148.669s55.845,128.4,124.733,128.4,124.734-57.486,124.734-128.4S218.319,20.27,149.43,20.27Z" fill="#2058bb"/><ellipse cx="149.43" cy="148.669" rx="112.881" ry="116.228" fill="#fff"/><path d="M149.43,33.442A109.539,109.539,0,0,1,228.521,67.17a117.677,117.677,0,0,1,0,163,109.595,109.595,0,0,1-158.182,0,117.677,117.677,0,0,1,0-163A109.54,109.54,0,0,1,149.43,33.442m0-2c-62.9,0-113.881,52.484-113.881,117.227S86.535,265.9,149.43,265.9s113.881-52.485,113.881-117.228S212.325,31.442,149.43,31.442Z" fill="#2058bb"/><ellipse cx="263.311" cy="249.51" rx="13.761" ry="14.165" fill="#2058bb" stroke="#fff" stroke-miterlimit="10"/><ellipse cx="231.104" cy="267.615" rx="8.282" ry="8.525" fill="#2058bb" stroke="#fff" stroke-miterlimit="10"/><ellipse cx="42.205" cy="60.874" rx="15.017" ry="15.459" fill="#2058bb"/><ellipse cx="60.935" cy="31.442" rx="7.88" ry="8.112" fill="#2058bb"/><ellipse cx="36.037" cy="28.722" rx="4.34" ry="4.467" fill="#2058bb"/><path d="M71.606,271.9V232.161H21.428V206.78L69.388,86.365h34.967v119.2h15.026v26.593H104.355V271.9Zm0-66.327v-57.2l-.677,2.057L52.648,205.568Z" fill="#2260bd"/><path d="M102.855,87.865v119.2h15.026v23.593H102.855V270.4H73.106V230.661H22.928V207.068L70.4,87.865h32.451M50.57,207.068H73.106V144.487h-1.8l-1.8,5.464L50.57,207.068m55.285-122.2H68.37l-.753,1.89-47.476,119.2-.213.535v27.168H70.106V273.4h35.749V233.661h15.026V204.068H105.855V84.865Zm-51.13,119.2,15.381-46.4v46.4Z" fill="#fff"/><polygon points="70.404 233.075 55.436 233.075 55.436 239.917 68.815 254.206 70.404 233.075" fill="#fff"/><path d="M163.567,63.379H137.812c-5.185-13.309-22.471-14.692-25.409,0" fill="#fff" stroke="#2058bb" stroke-linecap="round" stroke-miterlimit="10" stroke-width="3"/><path d="M234.781,76.333l-116.9,1.393v93.512l12.326,12.791-.173,10.717s7.432,10.889,7.778,10.025-1.383-79.165-1.383-79.165l-6.05,9.161.173,7.086-7.087-.518L122.947,82.1l53.384-.74,1.755,5.531-33.014,30.767-.173,45.114,21.779,26.1,9.653,48.744h33.56l8.988-47.189,21.779-27.656-2.074-43.731L207.3,86.368l.691-5.7,28-.345Z" fill="#2058bb" stroke="#2058bb" stroke-miterlimit="10" stroke-width="2"/><path d="M240.658,175.777s-14.865,18.277-15.211,19.314-6.222,37.984-6.222,37.984,19.407-23.637,20.161-24.847S240.658,175.777,240.658,175.777Z" fill="#2058bb"/><polygon points="144.207 178.325 156.826 192.499 168.061 233.075 145.072 213.759 144.207 178.325" fill="#2058bb"/><path d="M246.189,126.3l2.593,78.129,3.193-4.711,3.2-3.068V179.881l8.134-6.223,4.83,5.472,4.667-40.215-5.877,3.111s-6.222-3.63-6.222-5.358-5.013-2.247-5.013-2.247Z" fill="#2058bb"/><path d="M176.524,77.027c6.4-14.858,24.9-14.512,32.54,0Z" fill="#2058bb"/><rect x="174.802" y="200.277" width="35.78" height="13.309" rx="1.942" fill="#fff"/><circle cx="214.039" cy="156.973" r="13.437" fill="#fff"/><circle cx="226.484" cy="165.362" r="7.26" fill="#fff"/><circle cx="171.021" cy="158.069" r="13.437" fill="#fff"/><circle cx="159.019" cy="167.08" r="7.26" fill="#fff"/><g opacity="0.54"><path d="M297.332,39.615l-.417-10.959-.191-5.48-.1-2.74a17.088,17.088,0,0,0-.318-2.561,14.552,14.552,0,0,0-5.131-8.533,14.369,14.369,0,0,0-9.211-3.211c-3.6.082-7.291.224-10.931.367q-5.479.19-10.96.02c-3.653-.139-7.306-.3-10.959-.594s-7.307-.633-10.96-1.207v-.4c3.653-.574,7.307-.929,10.96-1.207s7.306-.455,10.959-.593c7.319-.288,14.585.211,21.947.414a17.264,17.264,0,0,1,10.852,4.441,16.85,16.85,0,0,1,5.407,10.172,18.978,18.978,0,0,1,.153,2.891l-.1,2.74-.192,5.48-.416,10.959Z" fill="#fff"/></g><g opacity="0.54"><path d="M5.787,39.615,5.371,28.656l-.192-5.48-.1-2.74a19.107,19.107,0,0,1,.153-2.891A16.856,16.856,0,0,1,10.643,7.373,17.264,17.264,0,0,1,21.5,2.932c7.362-.2,14.628-.7,21.947-.414,3.653.138,7.306.3,10.959.593s7.307.633,10.96,1.207v.4c-3.653.574-7.306.929-10.96,1.207s-7.306.455-10.959.594q-5.479.173-10.96-.02c-3.64-.143-7.334-.285-10.931-.367a14.364,14.364,0,0,0-9.21,3.211,14.548,14.548,0,0,0-5.132,8.533,17.088,17.088,0,0,0-.318,2.561L6.8,23.176,6.6,28.656,6.187,39.615Z" fill="#fff"/></g><g opacity="0.54"><path d="M297.732,260.384l.416,10.96.192,5.48.1,2.74a18.978,18.978,0,0,1-.153,2.891,16.85,16.85,0,0,1-5.407,10.172,17.269,17.269,0,0,1-10.852,4.441c-7.362.2-14.628.7-21.947.414-3.653-.138-7.306-.3-10.959-.593s-7.307-.633-10.96-1.206v-.4c3.653-.574,7.307-.929,10.96-1.207s7.306-.455,10.959-.594q5.48-.173,10.96.021c3.64.142,7.335.284,10.931.366a14.369,14.369,0,0,0,9.211-3.211,14.552,14.552,0,0,0,5.131-8.533,17.088,17.088,0,0,0,.318-2.561l.1-2.74.191-5.48.417-10.96Z" fill="#fff"/></g><g opacity="0.54"><path d="M6.187,260.384l.417,10.96.192,5.48.095,2.74a17.088,17.088,0,0,0,.318,2.561,14.548,14.548,0,0,0,5.132,8.533,14.364,14.364,0,0,0,9.21,3.211c3.6-.082,7.291-.224,10.931-.366s7.307-.136,10.96-.021c3.653.139,7.306.3,10.959.594s7.307.633,10.96,1.207v.4c-3.653.573-7.306.928-10.96,1.206s-7.306.455-10.959.593c-7.319.287-14.585-.211-21.947-.414a17.269,17.269,0,0,1-10.852-4.441,16.856,16.856,0,0,1-5.407-10.172,19.107,19.107,0,0,1-.153-2.891l.1-2.74.192-5.48.416-10.96Z" fill="#fff"/></g></svg>