<svg xmlns="http://www.w3.org/2000/svg" viewBox="0 0 300 300"><title>Asset 6background</title><rect width="300" height="300" rx="15.5" fill="#2058bb"/><rect x="9" y="9" width="282" height="282" rx="6.5" fill="#fff"/><path d="M282,18V282H18V18H282m2.5-18H15.5A15.5,15.5,0,0,0,0,15.5v269A15.5,15.5,0,0,0,15.5,300h269A15.5,15.5,0,0,0,300,284.5V15.5A15.5,15.5,0,0,0,284.5,0Z" fill="#2058bb"/><ellipse cx="150.157" cy="148.292" rx="121.204" ry="126.277" fill="#fff"/><path d="M150.156,23.014c32.093,0,62.269,13.021,84.969,36.664a127.161,127.161,0,0,1,35.236,88.613,127.163,127.163,0,0,1-35.236,88.614c-22.7,23.643-52.876,36.663-84.969,36.663s-62.268-13.02-84.968-36.663a127.163,127.163,0,0,1-35.236-88.614A127.161,127.161,0,0,1,65.188,59.678c22.7-23.643,52.876-36.664,84.968-36.664m0-2c-67.491,0-122.2,56.984-122.2,127.277s54.713,127.277,122.2,127.277,122.2-56.983,122.2-127.277S217.648,21.014,150.156,21.014Z" fill="#2058bb"/><ellipse cx="150.157" cy="148.292" rx="110.572" ry="115.204" fill="#fff"/><path d="M150.156,34.088c29.253,0,56.758,11.869,77.451,33.42a117.643,117.643,0,0,1,0,161.566c-20.693,21.552-48.2,33.421-77.451,33.421S93.4,250.626,72.706,229.074a117.643,117.643,0,0,1,0-161.566c20.692-21.551,48.2-33.42,77.45-33.42m0-2c-61.619,0-111.571,52.026-111.571,116.2S88.537,264.5,150.156,264.5s111.572-52.026,111.572-116.2-49.952-116.2-111.572-116.2Z" fill="#2058bb"/><ellipse cx="236.555" cy="53.166" rx="15.106" ry="15.733" fill="#2058bb"/><path d="M236.555,26.031c14.322,0,25.973,12.173,25.973,27.135S250.877,80.3,236.555,80.3s-25.973-12.172-25.973-27.134,11.651-27.135,25.973-27.135m0-2c-15.449,0-27.973,13.044-27.973,29.135S221.106,82.3,236.555,82.3s27.973-13.044,27.973-29.134S252,24.031,236.555,24.031Z" fill="#2058bb"/><ellipse cx="261.728" cy="248.251" rx="13.482" ry="14.041" fill="#2058bb" stroke="#fff" stroke-miterlimit="10"/><ellipse cx="48.012" cy="260.606" rx="16.899" ry="17.6" fill="#fff" stroke="#2058bb" stroke-miterlimit="10"/><ellipse cx="230.174" cy="266.197" rx="8.114" ry="8.45" fill="#2058bb" stroke="#fff" stroke-miterlimit="10"/><ellipse cx="81.356" cy="272.945" rx="6.479" ry="6.748" fill="#2058bb" stroke="#fff" stroke-miterlimit="10"/><ellipse cx="36.066" cy="231.224" rx="6.36" ry="6.624" fill="#2058bb" stroke="#fff" stroke-miterlimit="10"/><ellipse cx="45.105" cy="61.264" rx="14.713" ry="15.323" fill="#2058bb"/><ellipse cx="63.456" cy="32.088" rx="7.721" ry="8.041" fill="#2058bb"/><ellipse cx="39.063" cy="29.392" rx="4.252" ry="4.428" fill="#2058bb"/><path d="M171.143,263.262s-.345-35.864-3.8-34.429c-2.794,1.159-32.238,7.941-43.428,10.5a5.619,5.619,0,0,0-4.283,5.54v4.858a3.828,3.828,0,0,1-5.668,3.483c-10.917-6.247-33.68-19.361-32.363-19.361,1.729,0,30.326-2.722,32.153-1.076,2.338,2.105,49.674-8.989,49.786-11.834l-.691-8.966-6.223-10.042,3.8-6.456-6.569-15.421,7.26-7.532-7.952-10.759,3.112-3.586-7.952-21.16c-10.761-.9-17.32-7.19-19.016-19.725-4.239-4.536-10.062-6.927-16.941-7.89,17.287,45.547-51.168,54.155-44.945,0a87.8,87.8,0,0,0-26.968,17.215C26.626,212.694,92.316,272.945,171.143,263.262Z" fill="#2c64c7"/><ellipse cx="90.933" cy="119.004" rx="14.175" ry="14.704" fill="none" stroke="#2c64c7" stroke-miterlimit="10" stroke-width="3"/><line x1="204.68" y1="48.797" x2="174.947" y2="104.3" fill="none" stroke="#2c64c7" stroke-miterlimit="10" stroke-width="3"/><path d="M127.581,101.516c48.749-26.36,103.375,49.492,48.749,92.529" fill="none" stroke="#2c64c7" stroke-miterlimit="10" stroke-width="3"/><path d="M193.229,70.172c-37.965-15.353-72.51-12.957-102.3,14.13" fill="none" stroke="#2c64c7" stroke-miterlimit="10" stroke-width="2"/><path d="M73.992,64.218Q91.8,75.071,90.933,91.833" fill="none" stroke="#2c64c7" stroke-miterlimit="10" stroke-width="2"/><path d="M145.991,113.172l-7.952,4.483c2.084,5.306,4.778,9.294,8.557,10.938,0,0,5.359-8.338,5.273-8.7S145.991,113.172,145.991,113.172Z" fill="#2c64c7"/><path d="M87.936,165.678v9.71a3.578,3.578,0,0,1-3.579,3.645l-36.878-.7a3.585,3.585,0,0,1-3.451-3.645V163.369a3.574,3.574,0,0,1,3.727-3.64l36.878,2.31A3.591,3.591,0,0,1,87.936,165.678Z" fill="#fff" stroke="#2c64c7" stroke-miterlimit="10"/><path d="M187.607,137.25V123.466c0-13.245,2.114-26.219,8.46-35.681s17.215-15.677,35.04-15.677c16.613,0,27.789,5.677,34.435,14.325,6.649,8.923,9.066,21.354,9.066,35.141,0,20.273-8.46,44.329-19.034,66.765a469.233,469.233,0,0,1-32.021,55.682H275.21v28.924H186.7V244.021a499.093,499.093,0,0,0,27.186-41.895,256.691,256.691,0,0,0,18.727-39.2c5.138-13.784,9.062-27.3,9.366-39.464,0-5.407-.3-11.625-1.811-16.218s-4.228-8.109-9.063-8.109c-4.531,0-7.251,2.973-8.763,7.3-1.507,4.593-2.114,10.539-2.114,17.028V137.25Z" fill="#2c64c7" stroke="#fff" stroke-miterlimit="10" stroke-width="3"/><path d="M87.936,186.752v13.731a3.4,3.4,0,0,1-3.361,3.467c-8.227-.05-28.723-.223-28.907-.7-.155-.4-4.014-9.3-6.522-15.079a3.456,3.456,0,0,1,3.049-4.885h32.4A3.406,3.406,0,0,1,87.936,186.752Z" fill="#fff" stroke="#2c64c7" stroke-miterlimit="10"/><path d="M87.936,210.7v14.751a3.089,3.089,0,0,1-3.031,3.144H74.037a3,3,0,0,1-2.451-1.295l-10.342-14.75a3.154,3.154,0,0,1,2.452-5H84.905A3.09,3.09,0,0,1,87.936,210.7Z" fill="#fff" stroke="#2c64c7" stroke-miterlimit="10"/><path d="M144.729,158.38,97.95,160.25a5.177,5.177,0,0,0-4.863,5.45l.3,8a5.137,5.137,0,0,0,5.338,5.04l46.858-2.694a5.183,5.183,0,0,0,4.774-5.528l-.376-7.174A5.138,5.138,0,0,0,144.729,158.38Z" fill="#fff" stroke="#2c64c7" stroke-miterlimit="10"/><path d="M145.905,181.333,98.061,183.2a5.221,5.221,0,0,0-4.974,5.449l.3,8a5.205,5.205,0,0,0,5.46,5.04L146.776,199a5.223,5.223,0,0,0,4.883-5.528l-.385-7.175A5.2,5.2,0,0,0,145.905,181.333Z" fill="#fff" stroke="#2c64c7" stroke-miterlimit="10"/><path d="M148.088,204.286l-49.821,1.87a5.31,5.31,0,0,0-5.18,5.449l.318,8a5.338,5.338,0,0,0,5.685,5.04l49.9-2.694a5.3,5.3,0,0,0,5.085-5.528l-.4-7.175A5.337,5.337,0,0,0,148.088,204.286Z" fill="#fff" stroke="#2c64c7" stroke-miterlimit="10"/><polygon points="272.361 145.064 227.513 243.006 275.21 244.021 272.361 145.064" fill="#fff"/><g opacity="0.54"><path d="M295.572,37.907l-.416-10.96-.192-5.479-.1-2.74a17.185,17.185,0,0,0-.317-2.561,14.55,14.55,0,0,0-5.132-8.533,14.356,14.356,0,0,0-9.211-3.211c-3.6.082-7.29.224-10.931.366s-7.306.136-10.959.02c-3.654-.139-7.307-.3-10.96-.593s-7.306-.634-10.959-1.207v-.4c3.653-.573,7.306-.929,10.959-1.207s7.306-.455,10.96-.593c7.318-.287,14.585.212,21.947.414a17.267,17.267,0,0,1,10.851,4.441,16.853,16.853,0,0,1,5.407,10.172,18.991,18.991,0,0,1,.153,2.892l-.1,2.74-.191,5.479-.417,10.96Z" fill="#fff"/></g><g opacity="0.54"><path d="M4.028,37.907l-.417-10.96L3.42,21.468l-.1-2.74a18.991,18.991,0,0,1,.153-2.892A16.853,16.853,0,0,1,8.884,5.664,17.267,17.267,0,0,1,19.735,1.223c7.362-.2,14.629-.7,21.947-.414,3.654.138,7.307.3,10.96.593s7.306.634,10.959,1.207v.4c-3.653.573-7.306.928-10.959,1.207s-7.306.454-10.96.593q-5.48.174-10.959-.02c-3.641-.142-7.335-.284-10.931-.366a14.356,14.356,0,0,0-9.211,3.211,14.55,14.55,0,0,0-5.132,8.533,17.185,17.185,0,0,0-.317,2.561l-.1,2.74-.192,5.479-.416,10.96Z" fill="#fff"/></g><g opacity="0.54"><path d="M295.972,258.676l.417,10.959.191,5.48.1,2.74a18.978,18.978,0,0,1-.153,2.891,16.85,16.85,0,0,1-5.407,10.172,17.261,17.261,0,0,1-10.851,4.441c-7.362.2-14.629.7-21.947.415-3.654-.139-7.307-.3-10.96-.593s-7.306-.634-10.959-1.207v-.4c3.653-.573,7.306-.929,10.959-1.207s7.306-.455,10.96-.593q5.48-.174,10.959.02c3.641.142,7.335.284,10.931.366a14.356,14.356,0,0,0,9.211-3.211,14.55,14.55,0,0,0,5.132-8.533,17.218,17.218,0,0,0,.317-2.561l.1-2.74.192-5.48.416-10.959Z" fill="#fff"/></g><g opacity="0.54"><path d="M4.428,258.676l.416,10.959.192,5.48.1,2.74a17.218,17.218,0,0,0,.317,2.561,14.55,14.55,0,0,0,5.132,8.533,14.356,14.356,0,0,0,9.211,3.211c3.6-.082,7.29-.224,10.931-.366s7.306-.136,10.959-.02c3.654.138,7.307.3,10.96.593s7.306.634,10.959,1.207v.4c-3.653.573-7.306.929-10.959,1.207s-7.306.454-10.96.593c-7.318.287-14.585-.212-21.947-.415a17.261,17.261,0,0,1-10.851-4.441,16.85,16.85,0,0,1-5.407-10.172,18.978,18.978,0,0,1-.153-2.891l.1-2.74.191-5.48.417-10.959Z" fill="#fff"/></g></svg>