<svg xmlns="http://www.w3.org/2000/svg" viewBox="0 0 300 300"><title>Asset 3background</title><rect x="9" y="9" width="282" height="282" rx="6.5" fill="#fff"/><path d="M282,18V282H18V18H282m2.5-18H15.5A15.5,15.5,0,0,0,0,15.5v269A15.5,15.5,0,0,0,15.5,300h269A15.5,15.5,0,0,0,300,284.5V15.5A15.5,15.5,0,0,0,284.5,0Z" fill="#2058bb"/><circle cx="146.71" cy="148.608" r="124.053" fill="#fff" stroke="#2b64c1" stroke-linejoin="round" stroke-width="3"/><circle cx="146.71" cy="150.872" r="112.734" fill="#fff" stroke="#2b64c1" stroke-linejoin="round" stroke-width="2"/><rect x="18.582" y="92.468" width="87.833" height="186.08" rx="5.305" fill="#fff"/><path d="M62.839,275.794c-16.184,0-26.983-6.182-33.016-18.9-4.971-10.239-5.657-23.19-5.657-35.657a2,2,0,0,1,2-2H54.257a2,2,0,0,1,2,2V228.1c0,8.893.55,14.616,1.681,17.5,1.2,3.278,2.826,3.941,4.9,3.941,2.115,0,3.676-1.245,4.638-3.7,1.253-3.192,1.943-9.406,1.943-17.5V189.517c0-3.242-.667-10.783-6.843-10.783-2.028,0-4.127,1.34-6.239,3.983a13.7,13.7,0,0,0-2.684,6.8,2,2,0,0,1-2,2H27.99a2,2,0,0,1-2-2V97.9a2,2,0,0,1,2-2H95.867a2,2,0,0,1,2,2v25.331a2,2,0,0,1-2,2H54.176v30.581a36.086,36.086,0,0,1,7.749-3.462,14.032,14.032,0,0,1,4.966-.906,13.047,13.047,0,0,1,1.533.089c12.892.038,22.638,5.9,28.191,16.963a50.436,50.436,0,0,1,4.9,21.02v38.824c0,8.818-.648,20.149-5.7,29.588C89.628,269.777,78.531,275.794,62.839,275.794Z" fill="#2b64c1"/><path d="M95.868,97.9v25.331H52.176v36.219a37.912,37.912,0,0,1,10.4-5.207,12.058,12.058,0,0,1,4.314-.8,10.979,10.979,0,0,1,1.407.089c14.567,0,22.369,7.575,26.528,15.86a48.459,48.459,0,0,1,4.684,20.123v38.824c0,8.285-.522,19.412-5.463,28.644-4.942,9.469-14.3,16.809-31.209,16.809-17.425,0-26.268-7.34-31.209-17.755-4.942-10.181-5.464-23.2-5.464-34.8H54.257V228.1c0,8.76.518,14.914,1.82,18.228,1.3,3.551,3.379,5.209,6.762,5.209,2.86,0,5.2-1.658,6.5-4.972s2.081-9.469,2.081-18.228V189.517c0-7.34-2.86-12.783-8.842-12.783-3.122,0-5.722,2.13-7.8,4.734a15.545,15.545,0,0,0-3.121,8.049H27.99V97.9H95.868m0-4H27.99a4,4,0,0,0-4,4v91.616a4,4,0,0,0,4,4H51.654a4,4,0,0,0,4-4,11.85,11.85,0,0,1,2.3-5.619c1.693-2.1,3.248-3.164,4.624-3.164,4.37,0,4.842,6.142,4.842,8.783v38.824c0,10.985-1.261,15.385-1.8,16.767-.953,2.433-2.232,2.433-2.777,2.433-1.281,0-2.122-.174-3.006-2.586l-.033-.086c-1.024-2.606-1.543-8.247-1.543-16.765v-6.865a4,4,0,0,0-4-4H26.166a4,4,0,0,0-4,4c0,12.706.71,25.927,5.865,36.547,6.383,13.453,17.774,20.008,34.808,20.008,20.548,0,30.242-10.31,34.755-18.959,5.242-9.794,5.917-21.443,5.917-30.494V189.517A52.563,52.563,0,0,0,98.4,167.6c-5.9-11.748-16.218-17.991-29.858-18.064a14.963,14.963,0,0,0-1.651-.09,16.048,16.048,0,0,0-5.616,1.014,35.792,35.792,0,0,0-5.1,2.016V127.232H95.868a4,4,0,0,0,4-4V97.9a4,4,0,0,0-4-4Z" fill="#fff"/><polygon points="111.566 211.824 110.547 179.735 128.714 187.545 133.467 223.199 111.566 211.824" fill="#2b64c1"/><path d="M110.717,221.331l27.345,13.022a2.9,2.9,0,0,0,4.13-2.96l-7.011-59.673a4.97,4.97,0,0,0-3.207-4.079l-25.5-9.468s1.019-63.838.34-64.517c-.568-.567-38.228-2.2-50.6-2.724a2.03,2.03,0,0,1-1.525-3.264l7.756-10.151a3.406,3.406,0,0,1,3.663-1.2l67.294,19.7a4.531,4.531,0,0,1,3.24,3.936l12.938,141.04a3.178,3.178,0,0,1-4.636,3.109l-33.881-17.676Z" fill="#2b64c1"/><path d="M81.345,74.81l61.46,19.016,13.243-5.6.51-15.959C124.81,70.615,98.282,70.918,81.345,74.81Z" fill="#2b64c1"/><path d="M156.388,96.373l-13.752,3.056S159.1,245.61,159.444,245.1,235,198.92,234.827,198.241s-24.279-63.5-24.279-63.5l-19.525-6.791c-9.67,9.621-19.641,12.693-30.221,2.546-8.21-7.394-8.574-17.57-3.4-29.711Z" fill="#2b64c1"/><path d="M181.685,122.689c-8.828,10.7-24.958-.849-18.506-13.583Z" fill="#2b64c1"/><polygon points="169.121 54.21 186.326 48.551 189.721 42.212 191.985 25.234 208.284 26.819 220.961 22.292 230.016 30.894 228.884 46.061 238.845 52.399 245.183 65.303 259.898 87.714 270.084 104.465 277.328 113.747 276.197 127.103 266.236 125.745 256.955 135.252 246.315 137.063 233.638 124.386 169.121 54.21" fill="#fff"/><path d="M169.1,60.983l38.973,1.5a3.057,3.057,0,0,1,2.927,2.8L212.594,84.1a3,3,0,0,0,1.049,2.034l31.328,26.532a3.45,3.45,0,0,1,.536,4.7l-12.768,17.112a3.6,3.6,0,0,1-4.1,1.23c-35.38-12.8-64.7-26.688-63.7-46.07l1.552-26.282A2.524,2.524,0,0,1,169.1,60.983Z" fill="#2b64c1"/><circle cx="260.35" cy="244.591" r="13.469" fill="#2b64c1"/><circle cx="226.394" cy="263.38" r="7.81" fill="#2b64c1"/><circle cx="40.654" cy="62.813" r="14.601" fill="#2b64c1"/><circle cx="60.009" cy="32.365" r="7.81" fill="#2b64c1"/><circle cx="35.334" cy="30.554" r="3.962" fill="#2b64c1"/><path d="M245.862,131.347c.51-.509,9.848-18.166,9.848-18.166l5.942-6.791,13.922,10.017-2.886,2.716-6.452-3.226C262.2,123.345,254.574,127.8,245.862,131.347Z" fill="#2b64c1"/><path d="M231.644,84.457a2.539,2.539,0,0,0-.526,4.386c6.563,4.833,19.878,14.534,20.517,14.151a49.8,49.8,0,0,0,4.029-3.821,2.571,2.571,0,0,0,.036-3.579L242.869,82.088a3.346,3.346,0,0,0-3.721-.781Z" fill="#2b64c1"/><line x1="221.074" y1="77.527" x2="236.185" y2="72.603" fill="none" stroke="#2b64c1" stroke-miterlimit="10"/><line x1="234.147" y1="62.926" x2="217.339" y2="67.51" fill="none" stroke="#2b64c1" stroke-miterlimit="10"/><path d="M175.573,54.1l44.483,3.226,15.11-4.075L190.921,50.22a2.52,2.52,0,0,0-.8.075Z" fill="#2b64c1"/><path d="M199.824,49.526c-.038-4.061,1.687-8.293,4.739-12.653a2.45,2.45,0,0,0-.211-3.071,7.856,7.856,0,0,0-5.56-2.527,2.524,2.524,0,0,0-2.646,2.52,92.39,92.39,0,0,1-1.255,15.339,2.505,2.505,0,0,0,2.815,2.927h0A2.5,2.5,0,0,0,199.824,49.526Z" fill="#2b64c1"/><path d="M218.518,49.671c-.046-4.908,2.038-10.022,5.727-15.292a2.961,2.961,0,0,0-.256-3.711,9.5,9.5,0,0,0-6.719-3.054,3.05,3.05,0,0,0-3.2,3.046A111.546,111.546,0,0,1,212.556,49.2a3.027,3.027,0,0,0,3.4,3.537h0A3.023,3.023,0,0,0,218.518,49.671Z" fill="#2b64c1"/><path d="M257.478,74.529a28.02,28.02,0,0,0,4.061-7.235l.613-1.926.467-1.962c.085-.67.195-1.333.313-2,.053-.674.168-1.344.244-2.021a25.648,25.648,0,0,0-.238-8.332,23.167,23.167,0,0,0-3.4-7.7,56.711,56.711,0,0,0-5.179-6.529,39.646,39.646,0,0,0-6.186-5.317,22.769,22.769,0,0,0-15.345-4.6.153.153,0,0,1-.165-.139.155.155,0,0,1,.088-.152,15.467,15.467,0,0,1,8.8-1.079,21.578,21.578,0,0,1,8.416,3.313,28.425,28.425,0,0,1,6.539,6.12,30.017,30.017,0,0,1,4.483,7.611,86.474,86.474,0,0,1,2.887,8.228,34.467,34.467,0,0,1,1.8,8.656c-.01.75-.021,1.506-.072,2.258-.1.75-.237,1.5-.383,2.237l-.638,2.184c-.3.7-.592,1.4-.912,2.085a16,16,0,0,1-5.99,6.523.153.153,0,0,1-.2-.224Z" fill="#2b64c1"/><path d="M237.543,42.382c9.656-.9,13.737,4.706,13.413,15.45Z" fill="#2b64c1"/><polygon points="171.887 156.716 181.361 201.053 215.655 185.326 204.098 147.621 171.887 156.716" fill="none" stroke="#fff" stroke-linejoin="round" stroke-width="2"/><polygon points="178.329 160.505 183.066 178.695 196.329 174.147 191.403 156.526 178.329 160.505" fill="none" stroke="#fff" stroke-linejoin="round" stroke-width="2"/><path d="M184.013,184.189c1.327-.568,10.421-3.978,10.421-3.978" fill="none" stroke="#fff" stroke-linejoin="round" stroke-width="2"/><line x1="195.571" y1="156.337" x2="199.74" y2="155.011" fill="none" stroke="#fff" stroke-linejoin="round" stroke-width="2"/><line x1="202.013" y1="154.442" x2="203.719" y2="153.684" fill="none" stroke="#fff" stroke-linejoin="round" stroke-width="2"/><line x1="196.519" y1="160.884" x2="199.74" y2="159.558" fill="none" stroke="#fff" stroke-linejoin="round" stroke-width="2"/><line x1="197.655" y1="164.484" x2="205.424" y2="161.832" fill="none" stroke="#fff" stroke-linejoin="round" stroke-width="2"/><line x1="198.982" y1="168.653" x2="205.803" y2="166.379" fill="#2b64c1"/><g opacity="0.54"><path d="M294.59,39.616l-.417-10.96-.191-5.48-.1-2.74a17.088,17.088,0,0,0-.318-2.561,14.548,14.548,0,0,0-5.132-8.533,14.364,14.364,0,0,0-9.21-3.211c-3.6.082-7.291.224-10.931.366s-7.307.136-10.96.021c-3.653-.139-7.306-.3-10.959-.594s-7.307-.633-10.96-1.207v-.4c3.653-.573,7.306-.928,10.96-1.206s7.306-.455,10.959-.593c7.319-.287,14.585.211,21.947.414a17.269,17.269,0,0,1,10.852,4.441,16.856,16.856,0,0,1,5.407,10.172,18.978,18.978,0,0,1,.153,2.891l-.1,2.74-.192,5.48-.416,10.96Z" fill="#fff"/></g><g opacity="0.54"><path d="M3.045,39.616l-.416-10.96-.192-5.48-.1-2.74a18.978,18.978,0,0,1,.153-2.891A16.856,16.856,0,0,1,7.9,7.373,17.269,17.269,0,0,1,18.753,2.932c7.362-.2,14.628-.7,21.947-.414,3.653.138,7.306.3,10.959.593s7.307.633,10.96,1.206v.4c-3.653.574-7.306.929-10.96,1.207s-7.306.455-10.959.594q-5.48.173-10.96-.021c-3.64-.142-7.335-.284-10.931-.366A14.364,14.364,0,0,0,9.6,9.342a14.548,14.548,0,0,0-5.132,8.533,17.088,17.088,0,0,0-.318,2.561l-.1,2.74-.191,5.48-.417,10.96Z" fill="#fff"/></g><g opacity="0.54"><path d="M294.99,260.384l.416,10.96.192,5.48.1,2.74a18.978,18.978,0,0,1-.153,2.891,16.856,16.856,0,0,1-5.407,10.172,17.269,17.269,0,0,1-10.852,4.441c-7.362.2-14.628.7-21.947.415-3.653-.139-7.306-.3-10.959-.594s-7.307-.633-10.96-1.206v-.4c3.653-.574,7.306-.929,10.96-1.207s7.306-.455,10.959-.593q5.48-.174,10.96.02c3.64.142,7.335.284,10.931.366a14.364,14.364,0,0,0,9.21-3.211,14.548,14.548,0,0,0,5.132-8.533,17.088,17.088,0,0,0,.318-2.561l.1-2.74.191-5.48.417-10.96Z" fill="#fff"/></g><g opacity="0.54"><path d="M3.445,260.384l.417,10.96.191,5.48.1,2.74a17.088,17.088,0,0,0,.318,2.561A14.548,14.548,0,0,0,9.6,290.658a14.364,14.364,0,0,0,9.21,3.211c3.6-.082,7.291-.224,10.931-.366s7.307-.136,10.96-.02c3.653.138,7.306.3,10.959.593s7.307.633,10.96,1.207v.4c-3.653.573-7.306.928-10.96,1.206s-7.306.455-10.959.594c-7.319.286-14.585-.212-21.947-.415A17.269,17.269,0,0,1,7.9,292.627a16.856,16.856,0,0,1-5.407-10.172,18.978,18.978,0,0,1-.153-2.891l.1-2.74.192-5.48.416-10.96Z" fill="#fff"/></g></svg>