<svg xmlns="http://www.w3.org/2000/svg" viewBox="0 0 300 300"><title>Asset 7background</title><rect width="300" height="300" rx="15.5" fill="#2058bb"/><rect x="9" y="9" width="282" height="282" rx="6.5" fill="#fff"/><path d="M282,18V282H18V18H282m2.5-18H15.5A15.5,15.5,0,0,0,0,15.5v269A15.5,15.5,0,0,0,15.5,300h269A15.5,15.5,0,0,0,300,284.5V15.5A15.5,15.5,0,0,0,284.5,0Z" fill="#2058bb"/><ellipse cx="236.555" cy="53.166" rx="15.106" ry="15.733" fill="#2058bb"/><path d="M236.555,26.031c14.322,0,25.973,12.173,25.973,27.135S250.877,80.3,236.555,80.3s-25.973-12.172-25.973-27.134,11.651-27.135,25.973-27.135m0-2c-15.449,0-27.973,13.044-27.973,29.135S221.106,82.3,236.555,82.3s27.973-13.044,27.973-29.134S252,24.031,236.555,24.031Z" fill="#2058bb"/><ellipse cx="150.156" cy="148.291" rx="121.204" ry="126.277" fill="#fff"/><path d="M150.156,23.014c32.093,0,62.269,13.021,84.969,36.664a127.162,127.162,0,0,1,35.236,88.614,127.161,127.161,0,0,1-35.236,88.613c-22.7,23.643-52.876,36.663-84.969,36.663s-62.268-13.02-84.968-36.663a127.161,127.161,0,0,1-35.236-88.613A127.162,127.162,0,0,1,65.188,59.678c22.7-23.643,52.876-36.664,84.968-36.664m0-2c-67.491,0-122.2,56.984-122.2,127.278s54.713,127.276,122.2,127.276,122.2-56.983,122.2-127.276S217.648,21.014,150.156,21.014Z" fill="#2058bb"/><ellipse cx="150.156" cy="148.292" rx="110.572" ry="115.203" fill="#fff"/><path d="M150.156,34.088c29.253,0,56.758,11.869,77.451,33.42a117.643,117.643,0,0,1,0,161.566c-20.693,21.552-48.2,33.421-77.451,33.421S93.4,250.626,72.706,229.074a117.643,117.643,0,0,1,0-161.566c20.692-21.551,48.2-33.42,77.45-33.42m0-2c-61.619,0-111.571,52.026-111.571,116.2S88.537,264.5,150.156,264.5s111.572-52.026,111.572-116.2-49.952-116.2-111.572-116.2Z" fill="#2058bb"/><ellipse cx="261.728" cy="248.251" rx="13.482" ry="14.041" fill="#2058bb" stroke="#fff" stroke-miterlimit="10"/><ellipse cx="48.012" cy="260.606" rx="16.899" ry="17.6" fill="#fff" stroke="#2058bb" stroke-miterlimit="10"/><ellipse cx="230.174" cy="266.197" rx="8.114" ry="8.45" fill="#2058bb" stroke="#fff" stroke-miterlimit="10"/><ellipse cx="81.356" cy="272.945" rx="6.479" ry="6.748" fill="#2058bb" stroke="#fff" stroke-miterlimit="10"/><ellipse cx="36.066" cy="231.224" rx="6.36" ry="6.624" fill="#2058bb" stroke="#fff" stroke-miterlimit="10"/><ellipse cx="45.105" cy="61.264" rx="14.713" ry="15.323" fill="#2058bb"/><ellipse cx="63.456" cy="32.088" rx="7.721" ry="8.041" fill="#2058bb"/><ellipse cx="39.063" cy="29.392" rx="4.252" ry="4.428" fill="#2058bb"/><path d="M163.376,168.287l17.663-4.326-12.45-8.443,34.2-6.821-16.25-10.291,92.569-49.693.045,4.127c.034,3.218.329,31.522-.016,34.6-.231,2.066-.4,3.558-29.649,11.721-9.594,2.678-19.255,5.2-24.221,6.474l7.328,11-36.991,5.472,5.731,7.887-4.055.621c-7.188,1.1-18.282,2.854-22.548,3.643v3.268Z" fill="#3166c2"/><path d="M276.654,92.868s.338,31.279,0,34.291-55.421,16.924-55.421,16.924l7.1,10.656-37.172,5.5,5.744,7.906s-24.669,3.781-24.669,4.125l-3.379-2.75,18.248-4.468-12.165-8.25,34.469-6.874L191.5,138.584l85.159-45.716m4.91-8.311-7.275,3.906L189.13,134.178l-7.543,4.049,7.232,4.581,7.357,4.659L173.958,151.9l-11.716,2.336,9.888,6.7,2.849,1.932-7.315,1.791-9.763,2.391,7.8,6.344,3.38,2.75,8.159,6.64,0-6.433c4.6-.792,12.838-2.105,20.425-3.268l8.111-1.243-4.824-6.638-.892-1.228,29.007-4.292,7.8-1.154-4.371-6.564-3.194-4.8c5.337-1.389,13.123-3.446,20.863-5.606,8.1-2.259,14.579-4.193,19.265-5.747,8.331-2.762,11.767-4.268,12.2-8.1.346-3.077.111-27.492.031-34.9l-.089-8.257Z" fill="#fff"/><path d="M186.832,127.159Q160.03,85.69,116.581,112.8" fill="none" stroke="#3166c2" stroke-linecap="round" stroke-miterlimit="10" stroke-width="5"/><path d="M172.183,144.083c-6.992-29.461-36.624-29.461-53.272-4.468" fill="none" stroke="#3166c2" stroke-linecap="round" stroke-miterlimit="10" stroke-width="3"/><ellipse cx="145.547" cy="152.333" rx="13.318" ry="13.749" fill="#3166c2"/><path d="M120.909,232.077q53.77,12.373,84.235-24.748" fill="none" stroke="#3166c2" stroke-linecap="round" stroke-miterlimit="10" stroke-width="4"/><ellipse cx="170.851" cy="232.421" rx="16.314" ry="16.843" fill="#fff" stroke="#3166c2" stroke-linecap="round" stroke-miterlimit="10" stroke-width="2"/><line x1="216.464" y1="110.398" x2="205.144" y2="92.868" fill="#fff" stroke="#3166c2" stroke-linecap="round" stroke-miterlimit="10" stroke-width="2"/><path d="M224.455,77.057c-25,33.341-66.922,7.218-49.609-30.936C193.061,51.341,209.423,62.183,224.455,77.057Z" fill="#fff" stroke="#3166c2" stroke-linecap="round" stroke-miterlimit="10" stroke-width="2"/><path d="M212.136,66.057c-10.987,21.655-39.953,0-22.836-14.461Z" fill="#3166c2"/><path d="M157.949,171.925c1.9-.037,2.712,3.405.833,3.781,0,0-36.125,8.421-36.125,8.937s2.164,6.531,2.164,6.531,84.649-1.171,84.4-2.922c-.205-1.453,2.395-6.624,4.583-9.6a2.376,2.376,0,0,1,4.015.295c4.178,7.628,3.9,14.862-.25,21.755a2.384,2.384,0,0,1-3.131.98,11.362,11.362,0,0,1-5.345-6.132,2.4,2.4,0,0,0-2.312-1.555l-78.8,3.025-2.164,2.062.832,4.937a2.908,2.908,0,0,1-2.391,3.389l-4.814.7a2.908,2.908,0,0,0-2.38,3.447l9.252,49.055C31.6,234.827,5.627,118.991,77.71,64.511c6.278,1.005,11.624,4.73,16.145,10.859a2.643,2.643,0,0,0,2.235,1.107l12.486-.573a2.61,2.61,0,0,0,1.836-.887l3.6-4.066a2.589,2.589,0,0,1,3.778-.136l2.405,2.362a2.6,2.6,0,0,0,1.9.752l8.745-.269a2.671,2.671,0,0,0,2.066-1.139c3.014-4.156,6.6-6.8,11.052-7.128a2.611,2.611,0,0,1,2.321,1.036c3.383,4.692,3.72,9.509.554,14.471a2.722,2.722,0,0,1-1.675,1.158c-3.344.785-6.634-.873-9.887-4.164a2.659,2.659,0,0,0-1.926-.818l-7.656.132a2.61,2.61,0,0,0-1.977.969l-4,4.885a2.589,2.589,0,0,1-3.533.48l-4.905-3.523a2.587,2.587,0,0,0-1.715-.482l-10.975.872a2.714,2.714,0,0,0-2.348,3.4,44.169,44.169,0,0,1,.113,21.774l2.723,2.923a2.8,2.8,0,0,1,.327,3.356l-2.491,4.056a2.807,2.807,0,0,0-.222,2.477l2.512,6.485a2.718,2.718,0,0,0,1.026,1.283l3.95,2.621-3.835,3.835a2.8,2.8,0,0,0-.442,3.344l5.793,10.2a2.772,2.772,0,0,1-1.51,4c-16.409,5.385-37.661,7.626-61.57,8.143a2.615,2.615,0,0,0-2.55,2.205,11.081,11.081,0,0,0-.015,2.91,2.747,2.747,0,0,0,2.491,2.449c22.579,1.481,43.786.553,62.53-4.7a2.631,2.631,0,0,1,3.268,1.95l2.487,10.159a2.638,2.638,0,0,0,3.326,1.948l4.555-1.411a2.645,2.645,0,0,1,3.346,2.034c.312,1.44.687,2.861.937,2.775C123.489,178.456,157.949,171.925,157.949,171.925Z" fill="#3166c2"/><path d="M91.259,102.973l.663,7.313a3.309,3.309,0,0,1-3.1,3.627l-34.477,1.66a3.29,3.29,0,0,1-3.422-3.237l-.185-7.826a3.3,3.3,0,0,1,3.163-3.4l34-1.147A3.285,3.285,0,0,1,91.259,102.973Z" fill="#fff" stroke="#3166c2" stroke-miterlimit="10"/><path d="M92.185,121.452l.981,7.277a3.371,3.371,0,0,1-3.082,3.767l-35.765,3.255a3.348,3.348,0,0,1-3.685-3.075l-.505-7.811a3.381,3.381,0,0,1,3.152-3.548L88.57,118.6A3.352,3.352,0,0,1,92.185,121.452Z" fill="#fff" stroke="#3166c2" stroke-miterlimit="10"/><path d="M93.1,140.853l.984,7.277a3.4,3.4,0,0,1-3.157,3.768l-36.537,3.265a3.389,3.389,0,0,1-3.756-3.076l-.5-7.811a3.417,3.417,0,0,1,3.228-3.549L89.41,138A3.4,3.4,0,0,1,93.1,140.853Z" fill="#fff" stroke="#3166c2" stroke-miterlimit="10"/><g opacity="0.54"><path d="M295.572,39.615l-.416-10.959-.192-5.48-.1-2.74a17.218,17.218,0,0,0-.317-2.561,14.553,14.553,0,0,0-5.132-8.533,14.367,14.367,0,0,0-9.211-3.211c-3.6.082-7.29.224-10.931.367q-5.479.19-10.959.02c-3.654-.139-7.307-.3-10.96-.594s-7.306-.633-10.959-1.207v-.4c3.653-.574,7.306-.929,10.959-1.207s7.306-.455,10.96-.593c7.318-.288,14.585.211,21.947.414a17.261,17.261,0,0,1,10.851,4.441,16.85,16.85,0,0,1,5.407,10.172,18.978,18.978,0,0,1,.153,2.891l-.1,2.74-.191,5.48-.417,10.959Z" fill="#fff"/></g><g opacity="0.54"><path d="M4.028,39.615,3.611,28.656l-.191-5.48-.1-2.74a18.978,18.978,0,0,1,.153-2.891A16.85,16.85,0,0,1,8.884,7.373,17.261,17.261,0,0,1,19.735,2.932c7.362-.2,14.629-.7,21.947-.414,3.654.138,7.307.3,10.96.593s7.306.633,10.959,1.207v.4c-3.653.574-7.306.929-10.959,1.207s-7.306.455-10.96.594q-5.48.173-10.959-.02c-3.641-.143-7.335-.285-10.931-.367a14.367,14.367,0,0,0-9.211,3.211,14.553,14.553,0,0,0-5.132,8.533,17.218,17.218,0,0,0-.317,2.561l-.1,2.74-.192,5.48L4.428,39.615Z" fill="#fff"/></g><g opacity="0.54"><path d="M295.972,260.384l.417,10.96.191,5.48.1,2.74a18.978,18.978,0,0,1-.153,2.891,16.85,16.85,0,0,1-5.407,10.172,17.267,17.267,0,0,1-10.851,4.441c-7.362.2-14.629.7-21.947.414-3.654-.138-7.307-.3-10.96-.593s-7.306-.633-10.959-1.206v-.4c3.653-.574,7.306-.929,10.959-1.207s7.306-.455,10.96-.594q5.48-.173,10.959.021c3.641.142,7.335.284,10.931.366a14.367,14.367,0,0,0,9.211-3.211,14.553,14.553,0,0,0,5.132-8.533,17.218,17.218,0,0,0,.317-2.561l.1-2.74.192-5.48.416-10.96Z" fill="#fff"/></g><g opacity="0.54"><path d="M4.428,260.384l.416,10.96.192,5.48.1,2.74a17.218,17.218,0,0,0,.317,2.561,14.553,14.553,0,0,0,5.132,8.533,14.367,14.367,0,0,0,9.211,3.211c3.6-.082,7.29-.224,10.931-.366s7.306-.136,10.959-.021c3.654.139,7.307.3,10.96.594s7.306.633,10.959,1.207v.4c-3.653.573-7.306.928-10.959,1.206s-7.306.455-10.96.593c-7.318.287-14.585-.211-21.947-.414a17.267,17.267,0,0,1-10.851-4.441,16.85,16.85,0,0,1-5.407-10.172,18.978,18.978,0,0,1-.153-2.891l.1-2.74.191-5.48.417-10.96Z" fill="#fff"/></g></svg>